<svg width="229" height="229" viewBox="0 0 229 229" fill="none" xmlns="http://www.w3.org/2000/svg">
<path fill-rule="evenodd" clip-rule="evenodd" d="M114.5 229C177.737 229 229 177.737 229 114.5C229 51.2634 177.737 0 114.5 0C51.2634 0 0 51.2634 0 114.5C0 177.737 51.2634 229 114.5 229Z" fill="#E9EFFC"/>
<mask id="mask0_520_253" style="mask-type:luminance" maskUnits="userSpaceOnUse" x="0" y="0" width="229" height="229">
<path fill-rule="evenodd" clip-rule="evenodd" d="M114.5 229C177.737 229 229 177.737 229 114.5C229 51.2634 177.737 0 114.5 0C51.2634 0 0 51.2634 0 114.5C0 177.737 51.2634 229 114.5 229Z" fill="white"/>
</mask>
<g mask="url(#mask0_520_253)">
<path d="M-2.95483 109.329H115.239V234.91H-2.95483V109.329Z" fill="#FFAF40"/>
<path d="M115.239 113.761H230.477V239.342H115.239V113.761Z" fill="#89FF40"/>
<path d="M113.761 -10.3418H229V115.239H113.761V-10.3418Z" fill="#FF4040"/>
<path fill-rule="evenodd" clip-rule="evenodd" d="M115.239 -10.3418H-2.95478V218.658L115.239 115.239" fill="#4393FF"/>
</g>
<path d="M76.6207 174.205C77.1776 174.208 77.7192 174.307 78.2457 174.5C78.776 174.689 79.2533 175 79.6776 175.432C80.1018 175.86 80.4389 176.434 80.6889 177.153C80.9389 177.873 81.0639 178.763 81.0639 179.824C81.0677 180.824 80.9616 181.718 80.7457 182.506C80.5336 183.29 80.2287 183.953 79.831 184.494C79.4332 185.036 78.9541 185.449 78.3935 185.733C77.8329 186.017 77.2022 186.159 76.5014 186.159C75.7666 186.159 75.1151 186.015 74.5469 185.727C73.9825 185.439 73.526 185.045 73.1776 184.545C72.8291 184.045 72.6151 183.473 72.5355 182.83H74.6094C74.7154 183.292 74.9313 183.659 75.2571 183.932C75.5866 184.201 76.0014 184.335 76.5014 184.335C77.3082 184.335 77.9295 183.985 78.3651 183.284C78.8007 182.583 79.0185 181.61 79.0185 180.364H78.9389C78.7533 180.697 78.5128 180.985 78.2173 181.227C77.9219 181.466 77.5866 181.65 77.2116 181.778C76.8404 181.907 76.4465 181.972 76.0298 181.972C75.348 181.972 74.7344 181.809 74.1889 181.483C73.6473 181.157 73.2173 180.71 72.8991 180.142C72.5848 179.574 72.4257 178.924 72.4219 178.193C72.4219 177.436 72.5961 176.756 72.9446 176.153C73.2969 175.547 73.7874 175.07 74.4162 174.722C75.045 174.369 75.7798 174.197 76.6207 174.205ZM76.6264 175.909C76.2173 175.909 75.848 176.009 75.5185 176.21C75.1927 176.407 74.9351 176.676 74.7457 177.017C74.5601 177.354 74.4673 177.731 74.4673 178.148C74.4711 178.561 74.5639 178.936 74.7457 179.273C74.9313 179.61 75.1832 179.877 75.5014 180.074C75.8234 180.271 76.1908 180.369 76.6037 180.369C76.9105 180.369 77.1965 180.311 77.4616 180.193C77.7268 180.076 77.9579 179.913 78.1548 179.705C78.3556 179.492 78.5109 179.252 78.6207 178.983C78.7344 178.714 78.7893 178.43 78.7855 178.131C78.7855 177.733 78.6908 177.366 78.5014 177.028C78.3158 176.691 78.0601 176.42 77.7344 176.216C77.4124 176.011 77.0431 175.909 76.6264 175.909ZM82.7457 183.841V182.165L87.6832 174.364H89.081V176.75H88.2287L84.9048 182.017V182.108H91.7969V183.841H82.7457ZM88.2969 186V183.33L88.3196 182.58V174.364H90.3082V186H88.2969ZM97.7884 186.159C96.9702 186.159 96.2429 186.019 95.6065 185.739C94.974 185.458 94.474 185.068 94.1065 184.568C93.7391 184.068 93.544 183.491 93.5213 182.835H95.6577C95.6766 183.15 95.7808 183.424 95.9702 183.659C96.1596 183.89 96.4115 184.07 96.7259 184.199C97.0402 184.328 97.3925 184.392 97.7827 184.392C98.1993 184.392 98.5687 184.32 98.8906 184.176C99.2126 184.028 99.4645 183.824 99.6463 183.562C99.8281 183.301 99.9171 183 99.9134 182.659C99.9171 182.307 99.8262 181.996 99.6406 181.727C99.455 181.458 99.1861 181.248 98.8338 181.097C98.4853 180.945 98.0649 180.869 97.5724 180.869H96.544V179.244H97.5724C97.9777 179.244 98.3319 179.174 98.6349 179.034C98.9418 178.894 99.1823 178.697 99.3565 178.443C99.5308 178.186 99.616 177.888 99.6122 177.551C99.616 177.222 99.5421 176.936 99.3906 176.693C99.2429 176.447 99.0327 176.256 98.7599 176.119C98.491 175.983 98.1747 175.915 97.8111 175.915C97.455 175.915 97.1255 175.979 96.8224 176.108C96.5194 176.237 96.2751 176.42 96.0895 176.659C95.9039 176.894 95.8054 177.174 95.794 177.5H93.7656C93.7808 176.848 93.9683 176.277 94.3281 175.784C94.6918 175.288 95.1766 174.902 95.7827 174.625C96.3887 174.345 97.0687 174.205 97.8224 174.205C98.599 174.205 99.2732 174.35 99.8452 174.642C100.421 174.93 100.866 175.318 101.18 175.807C101.495 176.295 101.652 176.835 101.652 177.426C101.656 178.081 101.463 178.631 101.072 179.074C100.686 179.517 100.179 179.807 99.5497 179.943V180.034C100.368 180.148 100.995 180.451 101.43 180.943C101.87 181.432 102.088 182.04 102.084 182.767C102.084 183.419 101.898 184.002 101.527 184.517C101.16 185.028 100.652 185.43 100.004 185.722C99.3603 186.013 98.6217 186.159 97.7884 186.159Z" fill="white"/>
<path d="M145.882 80.1591C145.064 80.1591 144.337 80.0189 143.7 79.7386C143.068 79.4583 142.568 79.0682 142.2 78.5682C141.833 78.0682 141.638 77.4905 141.615 76.8352H143.751C143.77 77.1496 143.875 77.4242 144.064 77.6591C144.253 77.8902 144.505 78.0701 144.82 78.1989C145.134 78.3277 145.486 78.392 145.876 78.392C146.293 78.392 146.662 78.3201 146.984 78.1761C147.306 78.0284 147.558 77.8239 147.74 77.5625C147.922 77.3011 148.011 77 148.007 76.6591C148.011 76.3068 147.92 75.9962 147.734 75.7273C147.549 75.4583 147.28 75.2481 146.928 75.0966C146.579 74.9451 146.159 74.8693 145.666 74.8693H144.638V73.2443H145.666C146.071 73.2443 146.426 73.1742 146.729 73.0341C147.036 72.8939 147.276 72.697 147.45 72.4432C147.625 72.1856 147.71 71.8883 147.706 71.5511C147.71 71.2216 147.636 70.9356 147.484 70.6932C147.337 70.447 147.126 70.2557 146.854 70.1193C146.585 69.983 146.268 69.9148 145.905 69.9148C145.549 69.9148 145.219 69.9792 144.916 70.108C144.613 70.2367 144.369 70.4205 144.183 70.6591C143.998 70.8939 143.899 71.1742 143.888 71.5H141.859C141.875 70.8485 142.062 70.2765 142.422 69.7841C142.786 69.2879 143.27 68.9015 143.876 68.625C144.482 68.3447 145.162 68.2045 145.916 68.2045C146.693 68.2045 147.367 68.3504 147.939 68.642C148.515 68.9299 148.96 69.3182 149.274 69.8068C149.589 70.2955 149.746 70.8352 149.746 71.4261C149.75 72.0814 149.556 72.6307 149.166 73.0739C148.78 73.517 148.272 73.8068 147.643 73.9432V74.0341C148.462 74.1477 149.089 74.4508 149.524 74.9432C149.964 75.4318 150.181 76.0398 150.178 76.767C150.178 77.4186 149.992 78.0019 149.621 78.517C149.253 79.0284 148.746 79.4299 148.098 79.7216C147.454 80.0133 146.715 80.1591 145.882 80.1591ZM153.074 80.125C152.729 80.125 152.434 80.0038 152.188 79.7614C151.941 79.5189 151.82 79.2235 151.824 78.875C151.82 78.5341 151.941 78.2424 152.188 78C152.434 77.7576 152.729 77.6364 153.074 77.6364C153.407 77.6364 153.697 77.7576 153.943 78C154.193 78.2424 154.32 78.5341 154.324 78.875C154.32 79.1061 154.259 79.3163 154.142 79.5057C154.028 79.6951 153.877 79.8466 153.688 79.9602C153.502 80.0701 153.297 80.125 153.074 80.125ZM159.72 68.3636V80H157.612V70.4148H157.544L154.822 72.1534V70.2216L157.714 68.3636H159.72ZM162.675 80V78.4773L166.714 74.517C167.101 74.1269 167.423 73.7803 167.68 73.4773C167.938 73.1742 168.131 72.8807 168.26 72.5966C168.389 72.3125 168.453 72.0095 168.453 71.6875C168.453 71.3201 168.37 71.0057 168.203 70.7443C168.036 70.4792 167.807 70.2746 167.516 70.1307C167.224 69.9867 166.893 69.9148 166.521 69.9148C166.139 69.9148 165.804 69.9943 165.516 70.1534C165.228 70.3087 165.004 70.5303 164.845 70.8182C164.69 71.1061 164.612 71.4489 164.612 71.8466H162.607C162.607 71.108 162.775 70.4659 163.112 69.9205C163.449 69.375 163.913 68.9527 164.504 68.6534C165.099 68.3542 165.781 68.2045 166.55 68.2045C167.33 68.2045 168.016 68.3504 168.607 68.642C169.197 68.9337 169.656 69.3333 169.982 69.8409C170.311 70.3485 170.476 70.928 170.476 71.5795C170.476 72.0152 170.393 72.4432 170.226 72.8636C170.059 73.2841 169.766 73.75 169.345 74.2614C168.929 74.7727 168.343 75.392 167.589 76.1193L165.584 78.1591V78.2386H170.652V80H162.675ZM176.788 80.1591C175.97 80.1591 175.243 80.0189 174.607 79.7386C173.974 79.4583 173.474 79.0682 173.107 78.5682C172.739 78.0682 172.544 77.4905 172.521 76.8352H174.658C174.677 77.1496 174.781 77.4242 174.97 77.6591C175.16 77.8902 175.411 78.0701 175.726 78.1989C176.04 78.3277 176.393 78.392 176.783 78.392C177.199 78.392 177.569 78.3201 177.891 78.1761C178.213 78.0284 178.464 77.8239 178.646 77.5625C178.828 77.3011 178.917 77 178.913 76.6591C178.917 76.3068 178.826 75.9962 178.641 75.7273C178.455 75.4583 178.186 75.2481 177.834 75.0966C177.485 74.9451 177.065 74.8693 176.572 74.8693H175.544V73.2443H176.572C176.978 73.2443 177.332 73.1742 177.635 73.0341C177.942 72.8939 178.182 72.697 178.357 72.4432C178.531 72.1856 178.616 71.8883 178.612 71.5511C178.616 71.2216 178.542 70.9356 178.391 70.6932C178.243 70.447 178.033 70.2557 177.76 70.1193C177.491 69.983 177.175 69.9148 176.811 69.9148C176.455 69.9148 176.125 69.9792 175.822 70.108C175.519 70.2367 175.275 70.4205 175.089 70.6591C174.904 70.8939 174.805 71.1742 174.794 71.5H172.766C172.781 70.8485 172.968 70.2765 173.328 69.7841C173.692 69.2879 174.177 68.9015 174.783 68.625C175.389 68.3447 176.069 68.2045 176.822 68.2045C177.599 68.2045 178.273 68.3504 178.845 68.642C179.421 68.9299 179.866 69.3182 180.18 69.8068C180.495 70.2955 180.652 70.8352 180.652 71.4261C180.656 72.0814 180.463 72.6307 180.072 73.0739C179.686 73.517 179.179 73.8068 178.55 73.9432V74.0341C179.368 74.1477 179.995 74.4508 180.43 74.9432C180.87 75.4318 181.088 76.0398 181.084 76.767C181.084 77.4186 180.898 78.0019 180.527 78.517C180.16 79.0284 179.652 79.4299 179.004 79.7216C178.36 80.0133 177.622 80.1591 176.788 80.1591Z" fill="white"/>
<path d="M147.741 165.159C146.923 165.159 146.196 165.019 145.56 164.739C144.927 164.458 144.427 164.068 144.06 163.568C143.692 163.068 143.497 162.491 143.474 161.835H145.611C145.63 162.15 145.734 162.424 145.923 162.659C146.113 162.89 146.365 163.07 146.679 163.199C146.993 163.328 147.346 163.392 147.736 163.392C148.152 163.392 148.522 163.32 148.844 163.176C149.166 163.028 149.418 162.824 149.599 162.562C149.781 162.301 149.87 162 149.866 161.659C149.87 161.307 149.779 160.996 149.594 160.727C149.408 160.458 149.139 160.248 148.787 160.097C148.438 159.945 148.018 159.869 147.526 159.869H146.497V158.244H147.526C147.931 158.244 148.285 158.174 148.588 158.034C148.895 157.894 149.135 157.697 149.31 157.443C149.484 157.186 149.569 156.888 149.565 156.551C149.569 156.222 149.495 155.936 149.344 155.693C149.196 155.447 148.986 155.256 148.713 155.119C148.444 154.983 148.128 154.915 147.764 154.915C147.408 154.915 147.079 154.979 146.776 155.108C146.473 155.237 146.228 155.42 146.043 155.659C145.857 155.894 145.759 156.174 145.747 156.5H143.719C143.734 155.848 143.921 155.277 144.281 154.784C144.645 154.288 145.13 153.902 145.736 153.625C146.342 153.345 147.022 153.205 147.776 153.205C148.552 153.205 149.226 153.35 149.798 153.642C150.374 153.93 150.819 154.318 151.134 154.807C151.448 155.295 151.605 155.835 151.605 156.426C151.609 157.081 151.416 157.631 151.026 158.074C150.639 158.517 150.132 158.807 149.503 158.943V159.034C150.321 159.148 150.948 159.451 151.384 159.943C151.823 160.432 152.041 161.04 152.037 161.767C152.037 162.419 151.851 163.002 151.48 163.517C151.113 164.028 150.605 164.43 149.957 164.722C149.313 165.013 148.575 165.159 147.741 165.159ZM158.72 153.364V165H156.612V155.415H156.544L153.822 157.153V155.222L156.714 153.364H158.72ZM161.675 165V163.477L165.714 159.517C166.101 159.127 166.423 158.78 166.68 158.477C166.938 158.174 167.131 157.881 167.26 157.597C167.389 157.312 167.453 157.009 167.453 156.688C167.453 156.32 167.37 156.006 167.203 155.744C167.036 155.479 166.807 155.275 166.516 155.131C166.224 154.987 165.893 154.915 165.521 154.915C165.139 154.915 164.804 154.994 164.516 155.153C164.228 155.309 164.004 155.53 163.845 155.818C163.69 156.106 163.612 156.449 163.612 156.847H161.607C161.607 156.108 161.775 155.466 162.112 154.92C162.449 154.375 162.913 153.953 163.504 153.653C164.099 153.354 164.781 153.205 165.55 153.205C166.33 153.205 167.016 153.35 167.607 153.642C168.197 153.934 168.656 154.333 168.982 154.841C169.311 155.348 169.476 155.928 169.476 156.58C169.476 157.015 169.393 157.443 169.226 157.864C169.059 158.284 168.766 158.75 168.345 159.261C167.929 159.773 167.343 160.392 166.589 161.119L164.584 163.159V163.239H169.652V165H161.675ZM175.788 165.159C174.97 165.159 174.243 165.019 173.607 164.739C172.974 164.458 172.474 164.068 172.107 163.568C171.739 163.068 171.544 162.491 171.521 161.835H173.658C173.677 162.15 173.781 162.424 173.97 162.659C174.16 162.89 174.411 163.07 174.726 163.199C175.04 163.328 175.393 163.392 175.783 163.392C176.199 163.392 176.569 163.32 176.891 163.176C177.213 163.028 177.464 162.824 177.646 162.562C177.828 162.301 177.917 162 177.913 161.659C177.917 161.307 177.826 160.996 177.641 160.727C177.455 160.458 177.186 160.248 176.834 160.097C176.485 159.945 176.065 159.869 175.572 159.869H174.544V158.244H175.572C175.978 158.244 176.332 158.174 176.635 158.034C176.942 157.894 177.182 157.697 177.357 157.443C177.531 157.186 177.616 156.888 177.612 156.551C177.616 156.222 177.542 155.936 177.391 155.693C177.243 155.447 177.033 155.256 176.76 155.119C176.491 154.983 176.175 154.915 175.811 154.915C175.455 154.915 175.125 154.979 174.822 155.108C174.519 155.237 174.275 155.42 174.089 155.659C173.904 155.894 173.805 156.174 173.794 156.5H171.766C171.781 155.848 171.968 155.277 172.328 154.784C172.692 154.288 173.177 153.902 173.783 153.625C174.389 153.345 175.069 153.205 175.822 153.205C176.599 153.205 177.273 153.35 177.845 153.642C178.421 153.93 178.866 154.318 179.18 154.807C179.495 155.295 179.652 155.835 179.652 156.426C179.656 157.081 179.463 157.631 179.072 158.074C178.686 158.517 178.179 158.807 177.55 158.943V159.034C178.368 159.148 178.995 159.451 179.43 159.943C179.87 160.432 180.088 161.04 180.084 161.767C180.084 162.419 179.898 163.002 179.527 163.517C179.16 164.028 178.652 164.43 178.004 164.722C177.36 165.013 176.622 165.159 175.788 165.159Z" fill="white"/>
<path d="M44.3608 93.1591C43.6032 93.1591 42.9252 93.017 42.3267 92.733C41.7282 92.4451 41.2528 92.0511 40.9006 91.5511C40.5521 91.0511 40.3665 90.4792 40.3438 89.8352H42.3892C42.4271 90.3125 42.6335 90.7027 43.0085 91.0057C43.3835 91.3049 43.8343 91.4545 44.3608 91.4545C44.7737 91.4545 45.1411 91.3598 45.4631 91.1705C45.785 90.9811 46.0388 90.7178 46.2244 90.3807C46.41 90.0436 46.5009 89.6591 46.4972 89.2273C46.5009 88.7879 46.4081 88.3977 46.2188 88.0568C46.0294 87.7159 45.7699 87.4489 45.4403 87.2557C45.1108 87.0587 44.732 86.9602 44.304 86.9602C43.9555 86.9564 43.6127 87.0208 43.2756 87.1534C42.9384 87.286 42.6714 87.4602 42.4744 87.6761L40.571 87.3636L41.179 81.3636H47.929V83.125H42.9233L42.5881 86.2102H42.6562C42.8722 85.9564 43.1771 85.7462 43.571 85.5795C43.965 85.4091 44.3968 85.3239 44.8665 85.3239C45.571 85.3239 46.1998 85.4905 46.7528 85.8239C47.3059 86.1534 47.7415 86.608 48.0597 87.1875C48.3778 87.767 48.5369 88.4299 48.5369 89.1761C48.5369 89.9451 48.3589 90.6307 48.0028 91.233C47.6506 91.8314 47.16 92.303 46.5312 92.6477C45.9062 92.9886 45.1828 93.1591 44.3608 93.1591ZM51.3395 93.125C50.9948 93.125 50.6993 93.0038 50.4531 92.7614C50.2069 92.5189 50.0857 92.2235 50.0895 91.875C50.0857 91.5341 50.2069 91.2424 50.4531 91C50.6993 90.7576 50.9948 90.6364 51.3395 90.6364C51.6728 90.6364 51.9626 90.7576 52.2088 91C52.4588 91.2424 52.5857 91.5341 52.5895 91.875C52.5857 92.1061 52.5251 92.3163 52.4077 92.5057C52.294 92.6951 52.1425 92.8466 51.9531 92.9602C51.7675 93.0701 51.563 93.125 51.3395 93.125ZM58.4759 93.1591C57.6577 93.1591 56.9304 93.0189 56.294 92.7386C55.6615 92.4583 55.1615 92.0682 54.794 91.5682C54.4266 91.0682 54.2315 90.4905 54.2088 89.8352H56.3452C56.3641 90.1496 56.4683 90.4242 56.6577 90.6591C56.8471 90.8902 57.099 91.0701 57.4134 91.1989C57.7277 91.3277 58.08 91.392 58.4702 91.392C58.8868 91.392 59.2562 91.3201 59.5781 91.1761C59.9001 91.0284 60.152 90.8239 60.3338 90.5625C60.5156 90.3011 60.6046 90 60.6009 89.6591C60.6046 89.3068 60.5137 88.9962 60.3281 88.7273C60.1425 88.4583 59.8736 88.2481 59.5213 88.0966C59.1728 87.9451 58.7524 87.8693 58.2599 87.8693H57.2315V86.2443H58.2599C58.6652 86.2443 59.0194 86.1742 59.3224 86.0341C59.6293 85.8939 59.8698 85.697 60.044 85.4432C60.2183 85.1856 60.3035 84.8883 60.2997 84.5511C60.3035 84.2216 60.2296 83.9356 60.0781 83.6932C59.9304 83.447 59.7202 83.2557 59.4474 83.1193C59.1785 82.983 58.8622 82.9148 58.4986 82.9148C58.1425 82.9148 57.813 82.9792 57.5099 83.108C57.2069 83.2367 56.9626 83.4205 56.777 83.6591C56.5914 83.8939 56.4929 84.1742 56.4815 84.5H54.4531C54.4683 83.8485 54.6558 83.2765 55.0156 82.7841C55.3793 82.2879 55.8641 81.9015 56.4702 81.625C57.0762 81.3447 57.7562 81.2045 58.5099 81.2045C59.2865 81.2045 59.9607 81.3504 60.5327 81.642C61.1084 81.9299 61.5535 82.3182 61.8679 82.8068C62.1823 83.2955 62.3395 83.8352 62.3395 84.4261C62.3433 85.0814 62.1501 85.6307 61.7599 86.0739C61.3736 86.517 60.866 86.8068 60.2372 86.9432V87.0341C61.0554 87.1477 61.6823 87.4508 62.1179 87.9432C62.5573 88.4318 62.7751 89.0398 62.7713 89.767C62.7713 90.4186 62.5857 91.0019 62.2145 91.517C61.8471 92.0284 61.3395 92.4299 60.6918 92.7216C60.0478 93.0133 59.3092 93.1591 58.4759 93.1591ZM68.7614 81.2045C69.3182 81.2083 69.8598 81.3068 70.3864 81.5C70.9167 81.6894 71.3939 82 71.8182 82.4318C72.2424 82.8598 72.5795 83.4337 72.8295 84.1534C73.0795 84.8731 73.2045 85.7633 73.2045 86.8239C73.2083 87.8239 73.1023 88.7178 72.8864 89.5057C72.6742 90.2898 72.3693 90.9527 71.9716 91.4943C71.5739 92.036 71.0947 92.4489 70.5341 92.733C69.9735 93.017 69.3428 93.1591 68.642 93.1591C67.9072 93.1591 67.2557 93.0152 66.6875 92.7273C66.1231 92.4394 65.6667 92.0455 65.3182 91.5455C64.9697 91.0455 64.7557 90.4735 64.6761 89.8295H66.75C66.8561 90.2917 67.072 90.6591 67.3977 90.9318C67.7273 91.2008 68.142 91.3352 68.642 91.3352C69.4489 91.3352 70.0701 90.9848 70.5057 90.2841C70.9413 89.5833 71.1591 88.6098 71.1591 87.3636H71.0795C70.8939 87.697 70.6534 87.9848 70.358 88.2273C70.0625 88.4659 69.7273 88.6496 69.3523 88.7784C68.9811 88.9072 68.5871 88.9716 68.1705 88.9716C67.4886 88.9716 66.875 88.8087 66.3295 88.483C65.7879 88.1572 65.358 87.7102 65.0398 87.142C64.7254 86.5739 64.5663 85.9242 64.5625 85.1932C64.5625 84.4356 64.7367 83.7557 65.0852 83.1534C65.4375 82.5473 65.928 82.0701 66.5568 81.7216C67.1856 81.3693 67.9205 81.197 68.7614 81.2045ZM68.767 82.9091C68.358 82.9091 67.9886 83.0095 67.6591 83.2102C67.3333 83.4072 67.0758 83.6761 66.8864 84.017C66.7008 84.3542 66.608 84.7311 66.608 85.1477C66.6117 85.5606 66.7045 85.9356 66.8864 86.2727C67.072 86.6098 67.3239 86.8769 67.642 87.0739C67.964 87.2708 68.3314 87.3693 68.7443 87.3693C69.0511 87.3693 69.3371 87.3106 69.6023 87.1932C69.8674 87.0758 70.0985 86.9129 70.2955 86.7045C70.4962 86.4924 70.6515 86.2519 70.7614 85.983C70.875 85.714 70.9299 85.4299 70.9261 85.1307C70.9261 84.733 70.8314 84.3655 70.642 84.0284C70.4564 83.6913 70.2008 83.4205 69.875 83.2159C69.553 83.0114 69.1837 82.9091 68.767 82.9091ZM75.0966 93V91.4773L79.1364 87.517C79.5227 87.1269 79.8447 86.7803 80.1023 86.4773C80.3598 86.1742 80.553 85.8807 80.6818 85.5966C80.8106 85.3125 80.875 85.0095 80.875 84.6875C80.875 84.3201 80.7917 84.0057 80.625 83.7443C80.4583 83.4792 80.2292 83.2746 79.9375 83.1307C79.6458 82.9867 79.3144 82.9148 78.9432 82.9148C78.5606 82.9148 78.2254 82.9943 77.9375 83.1534C77.6496 83.3087 77.4261 83.5303 77.267 83.8182C77.1117 84.1061 77.0341 84.4489 77.0341 84.8466H75.0284C75.0284 84.108 75.197 83.4659 75.5341 82.9205C75.8712 82.375 76.3352 81.9527 76.9261 81.6534C77.5208 81.3542 78.2027 81.2045 78.9716 81.2045C79.7519 81.2045 80.4375 81.3504 81.0284 81.642C81.6193 81.9337 82.0777 82.3333 82.4034 82.8409C82.733 83.3485 82.8977 83.928 82.8977 84.5795C82.8977 85.0152 82.8144 85.4432 82.6477 85.8636C82.4811 86.2841 82.1875 86.75 81.767 87.2614C81.3504 87.7727 80.7652 88.392 80.0114 89.1193L78.0057 91.1591V91.2386H83.0739V93H75.0966Z" fill="white"/>
</svg>
